<svg xmlns="http://www.w3.org/2000/svg" width="880" height="256" viewBox="0 0 880 256" role="img" aria-labelledby="t" xml:space="preserve">
<title id="t">vamos conversar? gustavobarros.ctt@gmail.com · gustavohbarros.com.br · linkedin.com/in/gustavohbarros</title>
<style>text{font-family:ui-monospace,SFMono-Regular,'SF Mono',Menlo,Consolas,'Liberation Mono',monospace}.bk{animation:bk 1.1s steps(1,end) infinite}@keyframes bk{0%{opacity:1}50%,100%{opacity:0}}.ln{animation:ln .5s ease both}@keyframes ln{from{opacity:0;transform:translateX(-6px)}to{opacity:1;transform:none}}.dq{animation:dq 1.8s ease-in-out infinite;opacity:.15}@keyframes dq{0%,100%{opacity:.15}50%{opacity:.95}}.ic{animation:ic 3.4s ease-in-out infinite}@keyframes ic{0%,100%{transform:translateY(0)}50%{transform:translateY(-4px)}}.gl{animation:gl 6s ease-in-out infinite}@keyframes gl{0%{transform:translateX(0) skewX(-12deg)}60%,100%{transform:translateX(1140px) skewX(-12deg)}}.br{transform-box:fill-box;transform-origin:50% 100%;animation:br 2.6s ease-in-out infinite alternate}@keyframes br{0%{transform:scaleY(.45)}100%{transform:scaleY(1)}}.dr{stroke-dasharray:1400;animation:dr 3.2s ease-out .4s both}@keyframes dr{from{stroke-dashoffset:1400}to{stroke-dashoffset:0}}</style>
<defs><pattern id="sl" width="3" height="3" patternUnits="userSpaceOnUse"><rect width="3" height="1" fill="#fff" fill-opacity=".02"/></pattern></defs><rect x=".5" y=".5" width="879" height="255" rx="8" fill="#0a0a0a" stroke="#2a2a2a"/><text x="24" y="29" font-size="14" fill="#a6a6a6">[03] ~/contato</text><path d="M1 46H879" stroke="#1c1c1c"/><text x="856" y="29" font-size="14" fill="#a6a6a6" text-anchor="end">-- EOF --</text>
<text x="40" y="84" font-size="14" fill="#7a7a7a">$ echo "vamos conversar?"</text>
<text x="40" y="128" font-size="30" fill="#f5f5f5">vamos conversar?</text>
<rect class="bk" x="334" y="104" width="14" height="28" fill="#f5f5f5"/>
<text x="40" y="166" font-size="15" fill="#c8c8c8">gustavobarros.ctt@gmail.com</text>
<text x="40" y="192" font-size="15" fill="#c8c8c8">gustavohbarros.com.br</text>
<text x="40" y="218" font-size="15" fill="#c8c8c8">linkedin.com/in/gustavohbarros</text>
<path d="M512 214.5H840" stroke="#2a2a2a"/>
<path d="M512 180.0H840" stroke="#1c1c1c" stroke-dasharray="2 4"/>
<path d="M512 146.0H840" stroke="#1c1c1c" stroke-dasharray="2 4"/>
<path d="M512 112.0H840" stroke="#1c1c1c" stroke-dasharray="2 4"/>
<rect class="br" style="animation-duration:2.20s;animation-delay:0.00s" x="520" y="156.9" width="16" height="57.1" rx="2" fill="#7a7a7a"/>
<rect class="br" style="animation-duration:2.90s;animation-delay:-0.37s" x="545" y="135.1" width="16" height="78.9" rx="2" fill="#7a7a7a"/>
<rect class="br" style="animation-duration:3.60s;animation-delay:-0.74s" x="570" y="146.0" width="16" height="68.0" rx="2" fill="#7a7a7a"/>
<rect class="br" style="animation-duration:2.55s;animation-delay:-1.11s" x="595" y="117.4" width="16" height="96.6" rx="2" fill="#7a7a7a"/>
<rect class="br" style="animation-duration:3.25s;animation-delay:-1.48s" x="620" y="128.3" width="16" height="85.7" rx="2" fill="#7a7a7a"/>
<rect class="br" style="animation-duration:2.20s;animation-delay:-1.85s" x="645" y="105.2" width="16" height="108.8" rx="2" fill="#7a7a7a"/>
<rect class="br" style="animation-duration:2.90s;animation-delay:-2.22s" x="670" y="121.5" width="16" height="92.5" rx="2" fill="#7a7a7a"/>
<rect class="br" style="animation-duration:3.60s;animation-delay:-2.59s" x="695" y="94.3" width="16" height="119.7" rx="2" fill="#7a7a7a"/>
<rect class="br" style="animation-duration:2.55s;animation-delay:-2.96s" x="720" y="110.6" width="16" height="103.4" rx="2" fill="#a6a6a6"/>
<rect class="br" style="animation-duration:3.25s;animation-delay:-3.33s" x="745" y="86.2" width="16" height="127.8" rx="2" fill="#a6a6a6"/>
<rect class="br" style="animation-duration:2.20s;animation-delay:-3.70s" x="770" y="99.8" width="16" height="114.2" rx="2" fill="#a6a6a6"/>
<rect class="br" style="animation-duration:2.90s;animation-delay:-4.07s" x="795" y="78.0" width="16" height="136.0" rx="2" fill="#f5f5f5"/>
<text x="840" y="68" font-size="12" fill="#7a7a7a" text-anchor="end">kpi.live</text>
<rect x="1" y="1" width="878" height="254" rx="8" fill="url(#sl)"/>
</svg>
